{"title":"Cthulhu.2007.x264.mkv","uid":8929698,"size":2218775147,"categoryP":"video","categoryS":"movies","magnet":"?xt=urn:btih:4387c94e890ac6cb84d212b7e80035371d9bcd99&amp;dn=Cthulhu.2007.x264.mkv&amp;tr=udp%3A%2F%2Ftracker.openbittorrent.com%3A80&amp;tr=udp%3A%2F%2Fopen.demonii.com%3A1337&amp;tr=udp%3A%2F%2Ftracker.coppersurfer.tk%3A6969&amp;tr=udp%3A%2F%2Fexodus.desync.com%3A6969","seeders":0,"leechers":2,"uploader":"mago1974","files":1,"time":1379450671,"description":"General\nUnique ID                      : 181654083071894513881202366446706581529 (0x88A94DC68C08477897A350878E2B6019)\nComplete name                  : E:Lovecraft2007. CthulhuCthulhu.2007.x264.mkv\nFormat                         : Matroska\nFormat version                 : Version 4 / Version 2\nFile size                      : 2.07 GiB\nDuration                       : 1h 40mn\nOverall bit rate               : 2 929 Kbps\nMovie name                     : Cthulhu (2007) Duat\nEncoded date                   : UTC 2013-06-06 01:28:16\nWriting application            : mkvmerge v6.1.0 ('Old Devil') built on Mar  2 2013 14:32:37\nWriting library                : libebml v1.3.0 + libmatroska v1.4.0\n\nVideo\nID                             : 1\nFormat                         : AVC\nFormat/Info                    : Advanced Video Codec\nFormat profile                 : &lt;a class=&quot;__cf_email__&quot; href=&quot;/cdn-cgi/l/email-protection&quot; data-cfemail=&quot;4800212f2008047b6678&quot;&gt;[email&amp;#160;protected]&lt;/a&gt;&lt;script cf-hash='f9e31' type=&quot;text/javascript&quot;&gt;\n/* &lt;![CDATA[ */!function(){try{var t=&quot;currentScript&quot;in document?document.currentScript:function(){for(var t=document.getElementsByTagName(&quot;script&quot;),e=t.length;e--;)if(t[e].getAttribute(&quot;cf-hash&quot;))return t[e]}();if(t&amp;&amp;t.previousSibling){var e,r,n,i,c=t.previousSibling,a=c.getAttribute(&quot;data-cfemail&quot;);if(a){for(e=&quot;&quot;,r=parseInt(a.substr(0,2),16),n=2;a.length-n;n+=2)i=parseInt(a.substr(n,2),16)^r,e+=String.fromCharCode(i);e=document.createTextNode(e),c.parentNode.replaceChild(e,c)}}}catch(u){}}();/* ]]&gt; */&lt;/script&gt;\nFormat settings, CABAC         : Yes\nFormat settings, ReFrames      : 4 frames\nCodec ID                       : V_MPEG4/ISO/AVC\nDuration                       : 1h 40mn\nBit rate                       : 2 300 Kbps\nWidth                          : 848 pixels\nHeight                         : 480 pixels\nDisplay aspect ratio           : 16:9\nFrame rate mode                : Constant\nFrame rate                     : 23.976 fps\nColor space                    : YUV\nChroma subsampling             : 4:2:0\nBit depth                      : 8 bits\nScan type                      : Progressive\nBits/(Pixel*Frame)             : 0.236\nStream size                    : 1.57 GiB (76%)\nWriting library                : x264 core 120\nEncoding settings              : cabac=1 // deblock=1:0:0 / analyse=0x3:0x113 / me=hex / subme=7 / psy=1 / psy_rd=1.00:0.00 // me_range=16 / chroma_me=1 / trellis=1 / 8x8dct=1 / cqm=0 / deadzone=21,11 / fast_pskip=1 / chroma_qp_offset=-2 / threads=3 / sliced_threads=0 / nr=0 / decimate=1 / interlaced=0 / bluray_compat=0 / constrained_intra=0 / bframes=3 / b_pyramid=2 / b_adapt=2 / b_bias=0 / direct=1 / weightb=1 / open_gop=0 / weightp=2 / keyint=240 / keyint_min=24 / scenecut=40 / intra_refresh=0 / rc_lookahead=50 / rc=abr / mbtree=1 / bitrate=2300 / ratetol=1.0 / qcomp=0.60 / qpmin=3 / qpmax=69 / qpstep=4 / ip_ratio=1.40 / aq=1:1.00\nLanguage                       : English\nDefault                        : Yes\nForced                         : No\nColor primaries                : BT.601 NTSC\nTransfer characteristics       : BT.709\nMatrix coefficients            : BT.601\n\nAudio #1\nID                             : 2\nFormat                         : AC-3\nFormat/Info                    : Audio Coding 3\nMode extension                 : CM (complete main)\nFormat settings, Endianness    : Big\nCodec ID                       : A_AC3\nDuration                       : 1h 40mn\nBit rate mode                  : Constant\nBit rate                       : 448 Kbps\nChannel count                  : 6 channels\nChannel positions              : Front: L C R, Side: L R, LFE\nSampling rate                  : 48.0 KHz\nBit depth                      : 16 bits\nCompression mode               : Lossy\nStream size                    : 324 MiB (15%)\nTitle                          : AC3 5.1\nLanguage                       : English\nDefault                        : Yes\nForced                         : No\n\nAudio #2\nID                             : 3\nFormat                         : AC-3\nFormat/Info                    : Audio Coding 3\nMode extension                 : CM (complete main)\nFormat settings, Endianness    : Big\nCodec ID                       : A_AC3\nDuration                       : 1h 40mn\nBit rate mode                  : Constant\nBit rate                       : 192 Kbps\nChannel count                  : 2 channels\nChannel positions              : Front: L R\nSampling rate                  : 48.0 KHz\nBit depth                      : 16 bits\nCompression mode               : Lossy\nStream size                    : 139 MiB (7%)\nTitle                          : AC3 2.0 Audio Commentary\nLanguage                       : English\nDefault                        : No\nForced                         : No\n\nMenu\n00:00:00.000                   : en:Chapter 1\n00:08:02.315                   : en:Chapter 2\n00:11:44.745                   : en:Chapter 3\n00:16:23.816                   : en:Chapter 4\n00:19:31.587                   : en:Chapter 5\n00:26:40.807                   : en:Chapter 6\n00:31:34.350                   : en:Chapter 7\n00:34:48.336                   : en:Chapter 8\n00:38:16.711                   : en:Chapter 9\n00:40:41.105                   : en:Chapter 10\n00:47:40.482                   : en:Chapter 11\n00:55:46.176                   : en:Chapter 12\n00:58:54.364                   : en:Chapter 13\n01:05:23.920                   : en:Chapter 14\n01:09:11.605                   : en:Chapter 15\n01:13:04.588                   : en:Chapter 16\n01:16:31.003                   : en:Chapter 17\n01:24:09.294                   : en:Chapter 18\n","torrent":{"xt":"urn:btih:4387c94e890ac6cb84d212b7e80035371d9bcd99","amp;dn":"Cthulhu.2007.x264.mkv","amp;tr":["udp%3A%2F%2Ftracker.openbittorrent.com%3A80","udp%3A%2F%2Fopen.demonii.com%3A1337","udp%3A%2F%2Ftracker.coppersurfer.tk%3A6969","udp%3A%2F%2Fexodus.desync.com%3A6969"],"infoHash":"4387c94e890ac6cb84d212b7e80035371d9bcd99","infoHashBuffer":{"type":"Buffer","data":[67,135,201,78,137,10,198,203,132,210,18,183,232,0,53,55,29,155,205,153]},"announce":[],"urlList":[]}}